{
  "accessors": [
    {
      "bufferView": 2,
      "componentType": 5126,
      "count": 111,
      "max": [
        0.4912368953227997,
        0.07069063186645508,
        0.5273220539093018
      ],
      "min": [
        -0.49123671650886536,
        -0.1665658950805664,
        -0.5
      ],
      "type": "VEC3"
    },
    {
      "bufferView": 2,
      "byteOffset": 1332,
      "componentType": 5126,
      "count": 111,
      "max": [
        0.9978940486907959,
        1.0,
        0.9998791813850403
      ],
      "min": [
        -0.9978939890861511,
        -0.2948947250843048,
        -0.999886691570282
      ],
      "type": "VEC3"
    },
    {
      "bufferView": 1,
      "componentType": 5126,
      "count": 111,
      "max": [
        0.2005053460597992,
        0.3354940116405487
      ],
      "min": [
        0.052568525075912476,
        0.17752161622047424
      ],
      "type": "VEC2"
    },
    {
      "bufferView": 1,
      "byteOffset": 888,
      "componentType": 5126,
      "count": 111,
      "max": [
        0.2005053460597992,
        0.3354940116405487
      ],
      "min": [
        0.052568525075912476,
        0.17752161622047424
      ],
      "type": "VEC2"
    },
    {
      "bufferView": 1,
      "byteOffset": 1776,
      "componentType": 5126,
      "count": 111,
      "max": [
        0.2005053460597992,
        0.3354940116405487
      ],
      "min": [
        0.052568525075912476,
        0.17752161622047424
      ],
      "type": "VEC2"
    },
    {
      "bufferView": 0,
      "componentType": 5125,
      "count": 576,
      "type": "SCALAR"
    },
    {
      "bufferView": 2,
      "byteOffset": 2664,
      "componentType": 5126,
      "count": 186,
      "max": [
        0.5498532056808472,
        0.06717586517333984,
        0.5245075225830078
      ],
      "min": [
        -0.5498532056808472,
        -0.03315138816833496,
        -0.5
      ],
      "type": "VEC3"
    },
    {
      "bufferView": 2,
      "byteOffset": 4896,
      "componentType": 5126,
      "count": 186,
      "max": [
        0.6618107557296753,
        0.9999830722808838,
        0.9883663654327393
      ],
      "min": [
        -0.6610938310623169,
        -0.5919952392578125,
        -1.0
      ],
      "type": "VEC3"
    },
    {
      "bufferView": 1,
      "byteOffset": 2664,
      "componentType": 5126,
      "count": 186,
      "max": [
        0.3102472722530365,
        0.3007473647594452
      ],
      "min": [
        0.21991989016532898,
        0.20505771040916443
      ],
      "type": "VEC2"
    },
    {
      "bufferView": 1,
      "byteOffset": 4152,
      "componentType": 5126,
      "count": 186,
      "max": [
        0.3102472722530365,
        0.3007473647594452
      ],
      "min": [
        0.21991989016532898,
        0.20505771040916443
      ],
      "type": "VEC2"
    },
    {
      "bufferView": 1,
      "byteOffset": 5640,
      "componentType": 5126,
      "count": 186,
      "max": [
        0.3102472722530365,
        0.3007473647594452
      ],
      "min": [
        0.21991989016532898,
        0.20505771040916443
      ],
      "type": "VEC2"
    },
    {
      "bufferView": 0,
      "byteOffset": 2304,
      "componentType": 5125,
      "count": 960,
      "type": "SCALAR"
    },
    {
      "bufferView": 2,
      "byteOffset": 7128,
      "componentType": 5126,
      "count": 2229,
      "max": [
        -13.206842422485352,
        16.01979637145996,
        25.159717559814453
      ],
      "min": [
        -18.66783905029297,
        -0.2655845880508423,
        9.383183479309082
      ],
      "type": "VEC3"
    },
    {
      "bufferView": 2,
      "byteOffset": 33876,
      "componentType": 5126,
      "count": 2229,
      "max": [
        0.9501652717590332,
        1.0,
        1.0
      ],
      "min": [
        -1.0,
        -1.0,
        -1.0
      ],
      "type": "VEC3"
    },
    {
      "bufferView": 1,
      "byteOffset": 7128,
      "componentType": 5126,
      "count": 2229,
      "max": [
        0.9784998893737793,
        0.9844438433647156
      ],
      "min": [
        0.051933497190475464,
        0.6253175139427185
      ],
      "type": "VEC2"
    },
    {
      "bufferView": 0,
      "byteOffset": 6144,
      "componentType": 5125,
      "count": 7764,
      "type": "SCALAR"
    },
    {
      "bufferView": 2,
      "byteOffset": 60624,
      "componentType": 5126,
      "count": 5920,
      "max": [
        15.051575660705566,
        13.713529586791992,
        6.492579460144043
      ],
      "min": [
        -15.017313957214355,
        0.6214901208877563,
        -6.599460601806641
      ],
      "type": "VEC3"
    },
    {
      "bufferView": 2,
      "byteOffset": 131664,
      "componentType": 5126,
      "count": 5920,
      "max": [
        0.9999737739562988,
        0.9999975562095642,
        0.9999998211860657
      ],
      "min": [
        -0.9990001320838928,
        -0.9999971389770508,
        -0.9999936819076538
      ],
      "type": "VEC3"
    },
    {
      "bufferView": 1,
      "byteOffset": 24960,
      "componentType": 5126,
      "count": 5920,
      "max": [
        0.9871748685836792,
        1.7253501415252686
      ],
      "min": [
        -1.8862457275390625,
        0.0048809051513671875
      ],
      "type": "VEC2"
    },
    {
      "bufferView": 1,
      "byteOffset": 72320,
      "componentType": 5126,
      "count": 5920,
      "max": [
        0.9871748685836792,
        1.7253501415252686
      ],
      "min": [
        -1.8862457275390625,
        0.0048809051513671875
      ],
      "type": "VEC2"
    },
    {
      "bufferView": 1,
      "byteOffset": 119680,
      "componentType": 5126,
      "count": 5920,
      "max": [
        0.9871748685836792,
        1.7253501415252686
      ],
      "min": [
        -1.8862457275390625,
        0.0048809051513671875
      ],
      "type": "VEC2"
    },
    {
      "bufferView": 0,
      "byteOffset": 37200,
      "componentType": 5125,
      "count": 30384,
      "type": "SCALAR"
    },
    {
      "bufferView": 2,
      "byteOffset": 202704,
      "componentType": 5126,
      "count": 1249,
      "max": [
        -13.206842422485352,
        16.01979637145996,
        25.159717559814453
      ],
      "min": [
        -18.66783905029297,
        -0.2655845880508423,
        9.383183479309082
      ],
      "type": "VEC3"
    },
    {
      "bufferView": 2,
      "byteOffset": 217692,
      "componentType": 5126,
      "count": 1249,
      "max": [
        0.9501652717590332,
        0.9997374415397644,
        1.0
      ],
      "min": [
        -1.0,
        -0.999736487865448,
        -1.0
      ],
      "type": "VEC3"
    },
    {
      "bufferView": 1,
      "byteOffset": 167040,
      "componentType": 5126,
      "count": 1249,
      "max": [
        0.6163869500160217,
        0.9532897472381592
      ],
      "min": [
        0.09492804855108261,
        0.6558462381362915
      ],
      "type": "VEC2"
    },
    {
      "bufferView": 0,
      "byteOffset": 158736,
      "componentType": 5125,
      "count": 2616,
      "type": "SCALAR"
    },
    {
      "bufferView": 2,
      "byteOffset": 232680,
      "componentType": 5126,
      "count": 1052,
      "max": [
        -17.22248077392578,
        13.15497875213623,
        22.476879119873047
      ],
      "min": [
        -17.500520706176758,
        2.5990636348724365,
        11.91888427734375
      ],
      "type": "VEC3"
    },
    {
      "bufferView": 2,
      "byteOffset": 245304,
      "componentType": 5126,
      "count": 1052,
      "max": [
        0.4758811891078949,
        1.0,
        1.0
      ],
      "min": [
        -1.0,
        -1.0,
        -1.0
      ],
      "type": "VEC3"
    },
    {
      "bufferView": 1,
      "byteOffset": 177032,
      "componentType": 5126,
      "count": 1052,
      "max": [
        0.9784998893737793,
        0.966755747795105
      ],
      "min": [
        0.175144761800766,
        0.6257080435752869
      ],
      "type": "VEC2"
    },
    {
      "bufferView": 0,
      "byteOffset": 169200,
      "componentType": 5125,
      "count": 5268,
      "type": "SCALAR"
    },
    {
      "bufferView": 3,
      "componentType": 5126,
      "count": 1,
      "max": [
        0.0416666679084301
      ],
      "min": [
        0.0416666679084301
      ],
      "type": "SCALAR"
    },
    {
      "bufferView": 4,
      "componentType": 5126,
      "count": 1,
      "max": [
        -3.795637369155884,
        0.5075556039810181,
        -14.480395317077637
      ],
      "min": [
        -3.795637369155884,
        0.5075556039810181,
        -14.480395317077637
      ],
      "type": "VEC3"
    },
    {
      "bufferView": 3,
      "byteOffset": 4,
      "componentType": 5126,
      "count": 1,
      "max": [
        0.0416666679084301
      ],
      "min": [
        0.0416666679084301
      ],
      "type": "SCALAR"
    },
    {
      "bufferView": 5,
      "componentType": 5126,
      "count": 1,
      "max": [
        -3.293609529548522e-17,
        4.631638607722762e-18,
        1.5438794669758696e-18,
        1.0
      ],
      "min": [
        -3.293609529548522e-17,
        4.631638607722762e-18,
        1.5438794669758696e-18,
        1.0
      ],
      "type": "VEC4"
    }
  ],
  "animations": [
    {
      "channels": [
        {
          "sampler": 0,
          "target": {
            "node": 25,
            "path": "translation"
          }
        },
        {
          "sampler": 1,
          "target": {
            "node": 25,
            "path": "rotation"
          }
        }
      ],
      "name": "Take 001",
      "samplers": [
        {
          "input": 30,
          "interpolation": "LINEAR",
          "output": 31
        },
        {
          "input": 32,
          "interpolation": "LINEAR",
          "output": 33
        }
      ]
    }
  ],
  "asset": {
    "extras": {
      "author": "kayla.n.harding (https://sketchfab.com/kayla.n.harding)",
      "license": "CC-BY-4.0 (http://creativecommons.org/licenses/by/4.0/)",
      "source": "https://sketchfab.com/3d-models/flashlight-texured-3f453d7158c34215842f4c1fe8ee512d",
      "title": "FlashLight Texured"
    },
    "generator": "Sketchfab-12.67.0",
    "version": "2.0"
  },
  "bufferViews": [
    {
      "buffer": 0,
      "byteLength": 190272,
      "name": "floatBufferViews",
      "target": 34963
    },
    {
      "buffer": 0,
      "byteLength": 185448,
      "byteOffset": 190272,
      "byteStride": 8,
      "name": "floatBufferViews",
      "target": 34962
    },
    {
      "buffer": 0,
      "byteLength": 257928,
      "byteOffset": 375720,
      "byteStride": 12,
      "name": "floatBufferViews",
      "target": 34962
    },
    {
      "buffer": 0,
      "byteLength": 8,
      "byteOffset": 633648,
      "name": "floatBufferViews"
    },
    {
      "buffer": 0,
      "byteLength": 12,
      "byteOffset": 633656,
      "byteStride": 12,
      "name": "floatBufferViews"
    },
    {
      "buffer": 0,
      "byteLength": 16,
      "byteOffset": 633668,
      "byteStride": 16,
      "name": "floatBufferViews"
    }
  ],
  "buffers": [
    {
      "byteLength": 633684,
      "uri": "scene.bin"
    }
  ],
  "images": [
    {
      "uri": "textures/blinn1_baseColor.jpeg"
    },
    {
      "uri": "textures/blinn1_metallicRoughness.png"
    },
    {
      "uri": "textures/phong1_baseColor.jpeg"
    }
  ],
  "materials": [
    {
      "doubleSided": true,
      "name": "blinn1",
      "pbrMetallicRoughness": {
        "baseColorTexture": {
          "index": 0
        },
        "metallicFactor": 0.5855428984670928,
        "metallicRoughnessTexture": {
          "index": 1
        },
        "roughnessFactor": 0.5477904348662406
      }
    },
    {
      "alphaMode": "BLEND",
      "doubleSided": true,
      "name": "blinn3",
      "pbrMetallicRoughness": {
        "baseColorFactor": [
          0.0,
          0.0,
          0.0,
          0.9720328591086649
        ],
        "baseColorTexture": {
          "index": 0
        },
        "metallicFactor": 0.0,
        "roughnessFactor": 0.30536619244199814
      }
    },
    {
      "alphaMode": "BLEND",
      "doubleSided": true,
      "name": "phong1",
      "pbrMetallicRoughness": {
        "baseColorFactor": [
          1.0,
          1.0,
          1.0,
          0.7296086166844223
        ],
        "baseColorTexture": {
          "index": 2
        },
        "metallicFactor": 0.8885732014973958
      }
    }
  ],
  "meshes": [
    {
      "name": "pCube6_blinn1_0",
      "primitives": [
        {
          "attributes": {
            "NORMAL": 1,
            "POSITION": 0,
            "TEXCOORD_0": 2,
            "TEXCOORD_1": 3,
            "TEXCOORD_2": 4
          },
          "indices": 5,
          "material": 0,
          "mode": 4
        }
      ]
    },
    {
      "name": "pCube7_blinn1_0",
      "primitives": [
        {
          "attributes": {
            "NORMAL": 7,
            "POSITION": 6,
            "TEXCOORD_0": 8,
            "TEXCOORD_1": 9,
            "TEXCOORD_2": 10
          },
          "indices": 11,
          "material": 0,
          "mode": 4
        }
      ]
    },
    {
      "name": "pSphere2_blinn3_0",
      "primitives": [
        {
          "attributes": {
            "NORMAL": 13,
            "POSITION": 12,
            "TEXCOORD_0": 14
          },
          "indices": 15,
          "material": 1,
          "mode": 4
        }
      ]
    },
    {
      "name": "pCylinder12_blinn1_0",
      "primitives": [
        {
          "attributes": {
            "NORMAL": 17,
            "POSITION": 16,
            "TEXCOORD_0": 18,
            "TEXCOORD_1": 19,
            "TEXCOORD_2": 20
          },
          "indices": 21,
          "material": 0,
          "mode": 4
        }
      ]
    },
    {
      "name": "pSphere3_blinn3_0",
      "primitives": [
        {
          "attributes": {
            "NORMAL": 23,
            "POSITION": 22,
            "TEXCOORD_0": 24
          },
          "indices": 25,
          "material": 1,
          "mode": 4
        }
      ]
    },
    {
      "name": "pSphere4_phong1_0",
      "primitives": [
        {
          "attributes": {
            "NORMAL": 27,
            "POSITION": 26,
            "TEXCOORD_0": 28
          },
          "indices": 29,
          "material": 2,
          "mode": 4
        }
      ]
    }
  ],
  "nodes": [
    {
      "children": [
        1
      ],
      "matrix": [
        1.0,
        0.0,
        0.0,
        0.0,
        0.0,
        2.220446049250313e-16,
        -1.0,
        0.0,
        0.0,
        1.0,
        2.220446049250313e-16,
        0.0,
        0.0,
        0.0,
        0.0,
        1.0
      ],
      "name": "Sketchfab_model"
    },
    {
      "children": [
        2
      ],
      "matrix": [
        1.0,
        0.0,
        0.0,
        0.0,
        0.0,
        0.0,
        1.0,
        0.0,
        0.0,
        -1.0,
        0.0,
        0.0,
        0.0,
        0.0,
        0.0,
        1.0
      ],
      "name": "09b5320cb2774c88a5aea593d49c17cd.fbx"
    },
    {
      "children": [
        3
      ],
      "name": "Object_2"
    },
    {
      "children": [
        4,
        5,
        7,
        9,
        12,
        13,
        15,
        18,
        20,
        33
      ],
      "name": "RootNode"
    },
    {
      "name": "nurbsCube1"
    },
    {
      "children": [
        6
      ],
      "name": "left",
      "rotation": [
        0.0,
        1.1102230246251565e-16,
        0.0,
        1.0
      ],
      "translation": [
        -100.0999984741211,
        0.0,
        0.0
      ]
    },
    {
      "name": "Object_6"
    },
    {
      "children": [
        8
      ],
      "name": "group1",
      "rotation": [
        6.123234262925839e-17,
        1.0,
        -6.123234262925839e-17,
        -3.7493993930529855e-33
      ],
      "scale": [
        0.5327624082565308,
        0.5327624082565308,
        0.5327624082565308
      ],
      "translation": [
        7.6085662841796875,
        2.571084499359131,
        -0.417636513710022
      ]
    },
    {
      "name": "group2",
      "rotation": [
        -0.0,
        -0.0,
        -0.0,
        1.0
      ],
      "translation": [
        -6.183030128479004,
        3.1596732139587402,
        -2.016831636428833
      ]
    },
    {
      "children": [
        10
      ],
      "name": "group3"
    },
    {
      "children": [
        11
      ],
      "name": "group4",
      "scale": [
        0.5303915739059448,
        0.5303915739059448,
        0.5303915739059448
      ],
      "translation": [
        -4.356608867645264,
        10.754838943481445,
        3.205223560333252
      ]
    },
    {
      "name": "group5"
    },
    {
      "name": "nurbsCube2"
    },
    {
      "children": [
        14
      ],
      "name": "group6",
      "rotation": [
        6.123234262925839e-17,
        1.0,
        -6.123234262925839e-17,
        -3.7493993930529855e-33
      ],
      "scale": [
        0.5327624082565308,
        0.5327624082565308,
        0.5327624082565308
      ],
      "translation": [
        7.6085662841796875,
        2.571084499359131,
        -0.417636513710022
      ]
    },
    {
      "name": "group2",
      "rotation": [
        -0.0,
        -0.0,
        -0.0,
        1.0
      ],
      "translation": [
        -6.183030128479004,
        3.1596732139587402,
        -2.016831636428833
      ]
    },
    {
      "children": [
        16
      ],
      "name": "group7"
    },
    {
      "children": [
        17
      ],
      "name": "group4",
      "scale": [
        0.5303915739059448,
        0.5303915739059448,
        0.5303915739059448
      ],
      "translation": [
        -4.356608867645264,
        10.754838943481445,
        3.205223560333252
      ]
    },
    {
      "name": "group5"
    },
    {
      "children": [
        19
      ],
      "name": "back",
      "rotation": [
        -0.0,
        -0.7071068286895752,
        0.0,
        0.7071068286895752
      ],
      "translation": [
        0.0,
        0.0,
        -100.0999984741211
      ]
    },
    {
      "name": "Object_19"
    },
    {
      "children": [
        21,
        23,
        25,
        27,
        29,
        31
      ],
      "name": "group10",
      "rotation": [
        0.22863082587718964,
        -0.21655553579330444,
        -0.6639921069145203,
        0.6781932711601257
      ]
    },
    {
      "children": [
        22
      ],
      "name": "pCube6",
      "rotation": [
        0.16465239226818085,
        0.6940392851829529,
        -0.16399915516376495,
        0.6813980937004089
      ],
      "scale": [
        3.9858028888702393,
        3.9858028888702393,
        3.9858028888702393
      ],
      "translation": [
        -9.965571403503418,
        11.869000434875488,
        -0.13054218888282776
      ]
    },
    {
      "mesh": 0,
      "name": "pCube6_blinn1_0"
    },
    {
      "children": [
        24
      ],
      "name": "pCube7",
      "rotation": [
        0.16465239226818085,
        0.6940392851829529,
        -0.16399915516376495,
        0.6813980937004089
      ],
      "scale": [
        2.765756368637085,
        2.765756368637085,
        2.765756368637085
      ],
      "translation": [
        -9.76288890838623,
        12.06332015991211,
        -0.08042069524526596
      ]
    },
    {
      "mesh": 1,
      "name": "pCube7_blinn1_0"
    },
    {
      "children": [
        26
      ],
      "name": "pSphere2",
      "rotation": [
        -3.70776596315033e-36,
        3.602385629738849e-18,
        1.029252977983913e-18,
        1.0
      ],
      "scale": [
        0.8427099585533142,
        0.8427099585533142,
        0.8427099585533142
      ],
      "translation": [
        -3.795637607574463,
        0.5075557827949524,
        -14.480396270751953
      ]
    },
    {
      "mesh": 2,
      "name": "pSphere2_blinn3_0"
    },
    {
      "children": [
        28
      ],
      "name": "pCylinder12",
      "rotation": [
        -2.7755575615628914e-17,
        3.469446951953614e-18,
        2.168404344971009e-18,
        1.0
      ]
    },
    {
      "mesh": 3,
      "name": "pCylinder12_blinn1_0"
    },
    {
      "children": [
        30
      ],
      "name": "pSphere3",
      "rotation": [
        -3.70776596315033e-36,
        3.602385629738849e-18,
        1.029252977983913e-18,
        1.0
      ],
      "scale": [
        0.8427099585533142,
        0.8427099585533142,
        0.8427099585533142
      ],
      "translation": [
        -3.7268154621124268,
        0.4482528865337372,
        -14.435333251953125
      ]
    },
    {
      "mesh": 4,
      "name": "pSphere3_blinn3_0"
    },
    {
      "children": [
        32
      ],
      "name": "pSphere4",
      "rotation": [
        -3.70776596315033e-36,
        3.602385629738849e-18,
        1.029252977983913e-18,
        1.0
      ],
      "scale": [
        0.8427099585533142,
        0.8427099585533142,
        0.8427099585533142
      ],
      "translation": [
        -3.6986565589904785,
        0.44786739349365234,
        -14.434698104858398
      ]
    },
    {
      "mesh": 5,
      "name": "pSphere4_phong1_0"
    },
    {
      "children": [
        34
      ],
      "name": "persp1",
      "rotation": [
        -0.3418625593185425,
        0.8184853196144104,
        -0.17796239256858826,
        0.4260764718055725
      ],
      "translation": [
        36.434810638427734,
        76.14791107177734,
        52.58944320678711
      ]
    },
    {
      "name": "Object_34"
    }
  ],
  "samplers": [
    {
      "magFilter": 9729,
      "minFilter": 9987,
      "wrapS": 10497,
      "wrapT": 10497
    }
  ],
  "scene": 0,
  "scenes": [
    {
      "name": "Sketchfab_Scene",
      "nodes": [
        0
      ]
    }
  ],
  "textures": [
    {
      "sampler": 0,
      "source": 0
    },
    {
      "sampler": 0,
      "source": 1
    },
    {
      "sampler": 0,
      "source": 2
    }
  ]
}
